<svg id="Layer_1" data-name="Layer 1" xmlns="http://www.w3.org/2000/svg" viewBox="0 0 1950 220.54"><defs><style>.cls-1,.cls-2{fill:none;stroke:#231f20;stroke-linejoin:round;stroke-width:2px;}.cls-1{stroke-linecap:square;}</style></defs><title>bottomline</title><g id="Illustrations"><path class="cls-1" d="M1574.57,219.16a37.11,37.11,0,0,1-28.2-36c0-15.6,20.5-47.8,20.5-47.8,2.4-4,9.2-3.5,9.2-3.5h8.3v-11.2" transform="translate(-530.33 -0.02)"/><path class="cls-1" d="M1583.27,123.46h2.2c10.1,0,11.5,4.7,16.2,13.5,4.9,9.2,18.9,30.5,18.9,46.1a36.35,36.35,0,0,1-29.2,36" transform="translate(-530.33 -0.02)"/><path class="cls-1" d="M1582,123.46h-4.4a22.75,22.75,0,0,1-22.7-22.7h14.5a15,15,0,0,1,15,15h0v7.3" transform="translate(-530.33 -0.02)"/><path class="cls-2" d="M1516.17,159.26a15.68,15.68,0,0,0-2.9-31.1,16.88,16.88,0,0,0-5.6,1,21.89,21.89,0,0,0-35.9-14.1,21.57,21.57,0,0,0-14.2-5.2,21.85,21.85,0,0,0-21.7,19.3,14.67,14.67,0,0,0-5.6-1,15.68,15.68,0,0,0-2.9,31.1" transform="translate(-530.33 -0.02)"/><path class="cls-2" d="M1471.77,115.26" transform="translate(-530.33 -0.02)"/><path class="cls-2" d="M1440.27,176.66h.3c17,0,26.9,3.6,26.9,20,0,15,.1,22.8.1,22.8h-17.7" transform="translate(-530.33 -0.02)"/><path class="cls-2" d="M1503.67,177.06c-17,0-27.7,3.3-27.7,19.7,0,15-.1,22.8-.1,22.8h100.5" transform="translate(-530.33 -0.02)"/><path class="cls-2" d="M1440.07,149.16a13.82,13.82,0,0,0,.7,27.6" transform="translate(-530.33 -0.02)"/><path class="cls-2" d="M1503.07,149.46c7.3-.2,13.4,5.8,13.6,13.5a13.53,13.53,0,0,1-12.9,14.1" transform="translate(-530.33 -0.02)"/><path class="cls-2" d="M1221,174.46c-.6-13.6-10.1-46.5-17.1-52.2a11.74,11.74,0,0,0-14.8,0c-7,5.6-17.1,38.5-17.1,52.2,0,17,11.3,16.3,18.8,16.3h5v28.4h-26l-47.8-.1a36.32,36.32,0,0,0-11.1-70.9h-1v-8" transform="translate(-530.33 -0.02)"/><path class="cls-2" d="M1180.17,174.16" transform="translate(-530.33 -0.02)"/><line class="cls-2" x1="665.43" y1="180.04" x2="676.73" y2="166.34"/><line class="cls-2" x1="665.43" y1="160.24" x2="673.13" y2="150.94"/><line class="cls-2" x1="664.83" y1="180.04" x2="653.63" y2="166.34"/><line class="cls-2" x1="664.83" y1="160.24" x2="657.23" y2="150.94"/><path class="cls-1" d="M1454,219.36h-50.8l-29.8-.2c0-9.6,7.4-17,12.9-22a21.79,21.79,0,0,0,7.3-16.2c0-12.3-10.6-20.9-23.7-20.9" transform="translate(-530.33 -0.02)"/><path class="cls-1" d="M1591.17,219.46" transform="translate(-530.33 -0.02)"/><path class="cls-1" d="M1369.17,141c0-28-21.6-31.1-21.6-31.1s-5.8,35.6,19.9,35.6" transform="translate(-530.33 -0.02)"/><path class="cls-1" d="M1371,145.46c25.7,0,19.9-35.6,19.9-35.6s-21.6,3.1-21.6,31.1v19.1" transform="translate(-530.33 -0.02)"/><path class="cls-1" d="M1381.57,199.86" transform="translate(-530.33 -0.02)"/><path class="cls-1" d="M1367.57,153.36" transform="translate(-530.33 -0.02)"/><path class="cls-1" d="M1367.57,152.56" transform="translate(-530.33 -0.02)"/><path class="cls-1" d="M1371.17,160.06" transform="translate(-530.33 -0.02)"/><path class="cls-1" d="M1315.37,177.76c0,20.1-9.4,37-24,41.4h73c0-7.4-8.1-17.3-14.1-23.1a24.32,24.32,0,0,1-7.5-17.5c0-13.4,11.2-25.6,24.6-25.6" transform="translate(-530.33 -0.02)"/><path class="cls-2" d="M1248.67,177.76c0,20.3,9.9,37.3,24.7,41.5h-70.9V191h-.1c7.4,0,19.5,2.2,18.6-16.8" transform="translate(-530.33 -0.02)"/><path class="cls-1" d="M1281.77,128.86l-.1,6.4c-21.9,0-33.1,20.3-33.1,41.7" transform="translate(-530.33 -0.02)"/><path class="cls-1" d="M1315.37,177c0-32-16.6-48.4-33.3-48.4" transform="translate(-530.33 -0.02)"/><path class="cls-1" d="M1281.37,128.66" transform="translate(-530.33 -0.02)"/><path class="cls-1" d="M1281.37,128.66c-25,1.3-31.3-22-31.3-22h0s31.8-4.1,31.8,20.4h0" transform="translate(-530.33 -0.02)"/><path class="cls-2" d="M1081.37,105.56h0a28.55,28.55,0,0,1,28.5,28.5h0A28.55,28.55,0,0,1,1081.37,105.56Z" transform="translate(-530.33 -0.02)"/><polyline class="cls-2" points="579.53 134.04 579.53 134.04 579.53 134.04 579.53 142.24"/><path class="cls-2" d="M1089.87,125.76c.6.6,1.3,1.2,2,1.8a28.43,28.43,0,0,0,18,6.4h0v8.2" transform="translate(-530.33 -0.02)"/><path class="cls-2" d="M1109.87,142.66c-25-.7-39,17.5-39,39a38.94,38.94,0,0,0,28,37.4h-47.4" transform="translate(-530.33 -0.02)"/><line class="cls-2" x1="1060.83" y1="219.44" x2="1155.13" y2="219.44"/><path class="cls-2" d="M913.87,172.26a27.81,27.81,0,0,0,12.2,46.9" transform="translate(-530.33 -0.02)"/><line class="cls-2" x1="383.53" y1="145.54" x2="383.53" y2="172.24"/><path class="cls-2" d="M1028.57,219.26a19.32,19.32,0,0,0,5.6-33.9v-20.5a19.1,19.1,0,0,0-19.1-19.1h-13.9v-15.4h6.6v-6.7h-13.1v22.1h-31v-17.5L941.37,106h-27.5v39.8" transform="translate(-530.33 -0.02)"/><line class="cls-2" x1="498.23" y1="219.14" x2="545.93" y2="219.14"/><path class="cls-2" d="M926,219.16" transform="translate(-530.33 -0.02)"/><path class="cls-2" d="M1015.17,145.56a19.1,19.1,0,0,1,19.1,19.1" transform="translate(-530.33 -0.02)"/><path class="cls-2" d="M1042.07,200.76" transform="translate(-530.33 -0.02)"/><path class="cls-2" d="M1003.27,200.76a19.31,19.31,0,0,0,13.4,18.4h-76.5a27.83,27.83,0,0,0,19.4-18.4Z" transform="translate(-530.33 -0.02)"/><path class="cls-2" d="M905.27,192.36" transform="translate(-530.33 -0.02)"/><polygon class="cls-2" points="247.93 219.54 247.93 148.54 290.23 148.54 290.23 219.14 247.93 219.54"/><path class="cls-2" d="M686.47,158.86a15.68,15.68,0,0,0-2.9-31.1,16.88,16.88,0,0,0-5.6,1,21.89,21.89,0,0,0-35.9-14.1,21.57,21.57,0,0,0-14.2-5.2,21.85,21.85,0,0,0-21.7,19.3,14.67,14.67,0,0,0-5.6-1,15.68,15.68,0,0,0-2.9,31.1" transform="translate(-530.33 -0.02)"/><path class="cls-2" d="M642.07,115" transform="translate(-530.33 -0.02)"/><path class="cls-2" d="M610.57,176.36h.3c17,0,26.9,3.6,26.9,20,0,15,.1,22.8.1,22.8H530.33" transform="translate(-530.33 -0.02)"/><path class="cls-2" d="M674,176.66c-17,0-27.7,3.3-27.7,19.7,0,15-.1,22.8-.1,22.8H736v-71.3l-14.6-.3a77.87,77.87,0,0,1,14.7-45.7l-.1.1V69.26h14.9v17a78.21,78.21,0,0,1,126.9,61.2l-14.6.3v71.3H926" transform="translate(-530.33 -0.02)"/><path class="cls-2" d="M610.37,148.76a13.82,13.82,0,0,0,.7,27.6" transform="translate(-530.33 -0.02)"/><path class="cls-2" d="M673.37,149.06c7.3-.2,13.4,5.8,13.6,13.5a13.47,13.47,0,0,1-12.81,14.1h-.09" transform="translate(-530.33 -0.02)"/><polyline class="cls-2" points="1246.23 130.94 1176.33 91.14 1179.83 83.04 1167.13 74.44 1144.43 126.84 1132.23 155.14 1109.63 207.34 1124.53 210.84 1128.03 202.74 1182.03 219.44"/><line class="cls-2" x1="1117.43" y1="219.44" x2="1182.03" y2="219.44"/><polyline class="cls-2" points="1246.23 130.24 1207.63 219.44 1280.23 218.74 1271.73 141.04 1263.23 141.04 1261.23 126.44 1315.83 126.44 1345.73 126.44 1400.23 126.44 1398.33 141.04 1389.83 141.04 1381.33 218.74"/><path class="cls-2" d="M1814.77,225.46" transform="translate(-530.33 -0.02)"/><path class="cls-2" d="M1846.67,153.36H1878v36.1c0,9.6-7.3,18-19,18-12,0-18.3-7.7-19.1-18.3h9.2c.5,5.3,3.3,9.8,9.7,9.8,5.8,0,9.3-3.6,9.3-9.5v-27.6h-21.4Z" transform="translate(-530.33 -0.02)"/><path class="cls-2" d="M1682.57,163.26l13.7-28.2,32.4,15.7c8.7,4.2,13,14.4,7.9,25-5.3,10.8-15,13.1-24.8,9.2l4-8.3c5,1.8,10.2,1.3,13-4.5,2.5-5.2.8-10-4.5-12.5l-24.8-12-9.4,19.3Z" transform="translate(-530.33 -0.02)"/><path class="cls-2" d="M2242.37,98.46l23.1,57.5a8.48,8.48,0,0,1-4.7,11l-33.5,13.4a8.48,8.48,0,0,1-11-4.7l-15.3-38.1" transform="translate(-530.33 -0.02)"/><path class="cls-2" d="M2184.07,95.86l-7.7-19.2,5.3-2.1-1.9-4.7-5.3,2.1-12.7-31.8a8.48,8.48,0,0,1,4.7-11l33.5-13.4a8.48,8.48,0,0,1,11,4.7l12.7,31.8-5.3,2.1,1.9,4.7,5.3-2.1,10.6,26.5" transform="translate(-530.33 -0.02)"/><path class="cls-2" d="M2248.17,140.26" transform="translate(-530.33 -0.02)"/><path class="cls-2" d="M2241.67,82.46" transform="translate(-530.33 -0.02)"/><path class="cls-2" d="M2232.57,95.66" transform="translate(-530.33 -0.02)"/><path class="cls-2" d="M2246.17,92.56l-3.9,5.9-3,4.6a6.63,6.63,0,0,1-9.18,1.91h0a6.63,6.63,0,0,1-1.91-9.18v0l8.1-12.2,17.9-3.6,19.7-3.9" transform="translate(-530.33 -0.02)"/><line class="cls-2" x1="1730.03" y1="124.54" x2="1723.03" y2="125.94"/><path class="cls-2" d="M2268.47,86.76" transform="translate(-530.33 -0.02)"/><path class="cls-2" d="M2257.57,125.06l17.7-3.6c27.4-5.5,54.8,12.3,59.7,39.8a49.62,49.62,0,0,1-.8,21.4c-5.6,21.4-25.3,36.1-47.4,36.4h-168.7" transform="translate(-530.33 -0.02)"/><path class="cls-2" d="M2267.47,77.26c51.3-10.3,103.9,14.5,123.7,63,5.5,13.5,12.4,59.7-15.9,78.9h105.07" transform="translate(-530.33 -0.02)"/><path class="cls-2" d="M2213.87,146.56" transform="translate(-530.33 -0.02)"/><path class="cls-2" d="M2197.57,90.66" transform="translate(-530.33 -0.02)"/><path class="cls-2" d="M2195,115.76l7-2.7a5.65,5.65,0,0,1,7.3,3.2h0a5.65,5.65,0,0,1-3.2,7.3l-7,2.7" transform="translate(-530.33 -0.02)"/><path class="cls-2" d="M2199,126.26l-7,2.7a5.65,5.65,0,0,1-7.3-3.2h0a5.65,5.65,0,0,1,3.2-7.3l7-2.7" transform="translate(-530.33 -0.02)"/><path class="cls-2" d="M2199,126.26l7-2.7a5.65,5.65,0,0,1,7.3,3.2h0a5.65,5.65,0,0,1-3.2,7.3l-7,2.7" transform="translate(-530.33 -0.02)"/><path class="cls-2" d="M2203.07,136.76l-7,2.7a5.65,5.65,0,0,1-7.3-3.2h0a5.65,5.65,0,0,1,3.2-7.3l7-2.7" transform="translate(-530.33 -0.02)"/><path class="cls-2" d="M2195,115.76l7-2.7a5.65,5.65,0,0,1,7.3,3.2h0a5.65,5.65,0,0,1-3.2,7.3l-7,2.7" transform="translate(-530.33 -0.02)"/><path class="cls-2" d="M2199,126.26l-7,2.7a5.65,5.65,0,0,1-7.3-3.2h0a5.65,5.65,0,0,1,3.2-7.3l7-2.7" transform="translate(-530.33 -0.02)"/><path class="cls-2" d="M2199,126.26l7-2.7a5.65,5.65,0,0,1,7.3,3.2h0a5.65,5.65,0,0,1-3.2,7.3l-7,2.7" transform="translate(-530.33 -0.02)"/><path class="cls-2" d="M2203.07,136.76l-7,2.7a5.65,5.65,0,0,1-7.3-3.2h0a5.65,5.65,0,0,1,3.2-7.3l7-2.7" transform="translate(-530.33 -0.02)"/><path class="cls-2" d="M2187,94.76l7-2.7a5.65,5.65,0,0,1,7.3,3.2h0a5.65,5.65,0,0,1-3.2,7.3l-7,2.7" transform="translate(-530.33 -0.02)"/><path class="cls-2" d="M2191,105.26l-7,2.7a5.65,5.65,0,0,1-7.3-3.2h0a5.65,5.65,0,0,1,3.2-7.3l7-2.7" transform="translate(-530.33 -0.02)"/><path class="cls-2" d="M2191,105.26l7-2.7a5.65,5.65,0,0,1,7.3,3.2h0a5.65,5.65,0,0,1-3.2,7.3l-7,2.7" transform="translate(-530.33 -0.02)"/><path class="cls-2" d="M2195.07,115.76l-7,2.7a5.65,5.65,0,0,1-7.3-3.2h0a5.65,5.65,0,0,1,3.2-7.3l7-2.7" transform="translate(-530.33 -0.02)"/><path class="cls-2" d="M2187,94.76l7-2.7a5.65,5.65,0,0,1,7.3,3.2h0a5.65,5.65,0,0,1-3.2,7.3l-7,2.7" transform="translate(-530.33 -0.02)"/><path class="cls-2" d="M2191,105.26l-7,2.7a5.65,5.65,0,0,1-7.3-3.2h0a5.65,5.65,0,0,1,3.2-7.3l7-2.7" transform="translate(-530.33 -0.02)"/><path class="cls-2" d="M2191,105.26l7-2.7a5.65,5.65,0,0,1,7.3,3.2h0a5.65,5.65,0,0,1-3.2,7.3l-7,2.7" transform="translate(-530.33 -0.02)"/><path class="cls-2" d="M2195.07,115.76l-7,2.7a5.65,5.65,0,0,1-7.3-3.2h0a5.65,5.65,0,0,1,3.2-7.3l7-2.7" transform="translate(-530.33 -0.02)"/><path class="cls-2" d="M2224.77,90.46" transform="translate(-530.33 -0.02)"/><path class="cls-2" d="M2084.07,90.46l-11.3,61a8.5,8.5,0,0,0,6.8,9.9l35.5,6.6a8.5,8.5,0,0,0,9.9-6.8l7.5-40.4" transform="translate(-530.33 -0.02)"/><path class="cls-2" d="M2140.67,76.46l3.8-20.3-5.6-1,.9-4.9,5.6,1,6.2-33.6a8.5,8.5,0,0,0-6.8-9.9l-35.5-6.6a8.5,8.5,0,0,0-9.9,6.8l-6.2,33.6,5.6,1-.9,4.9-5.6-1-5.2,28.1" transform="translate(-530.33 -0.02)"/><path class="cls-2" d="M2086.57,132.56" transform="translate(-530.33 -0.02)"/><path class="cls-2" d="M2081.67,74.56" transform="translate(-530.33 -0.02)"/><path class="cls-2" d="M2093.17,85.86" transform="translate(-530.33 -0.02)"/><path class="cls-2" d="M2079.17,85.46l5,5,3.9,3.9a6.64,6.64,0,0,0,9.39,0h0a6.64,6.64,0,0,0,0-9.39h0l-10.3-10.3H2049" transform="translate(-530.33 -0.02)"/><line class="cls-2" x1="1541.23" y1="119.54" x2="1548.33" y2="119.54"/><path class="cls-2" d="M2056.17,84.16" transform="translate(-530.33 -0.02)"/><path class="cls-2" d="M2055.27,219.16a49.8,49.8,0,1,1-.07-99.6h19.17" transform="translate(-530.33 -0.02)"/><path class="cls-2" d="M2055.27,219.16a49.8,49.8,0,1,1-.07-99.6h19.17" transform="translate(-530.33 -0.02)"/><path class="cls-2" d="M2055.37,74.56c-52.3,0-99.7,42.4-99.7,94.8,0,18.2,4.4,36.3,16.9,49.8" transform="translate(-530.33 -0.02)"/><path class="cls-2" d="M2005.57,169.36a49.8,49.8,0,0,0,49.8,49.8h59.1" transform="translate(-530.33 -0.02)"/><line class="cls-2" x1="1617.93" y1="219.14" x2="1582.63" y2="219.14"/><path class="cls-2" d="M2121.47,132" transform="translate(-530.33 -0.02)"/><path class="cls-2" d="M2126.47,74.06" transform="translate(-530.33 -0.02)"/><path class="cls-2" d="M2134,98.16l-7.4-1.3a5.59,5.59,0,0,0-6.49,4.52v.08h0a5.59,5.59,0,0,0,4.52,6.49h.08l7.4,1.3" transform="translate(-530.33 -0.02)"/><path class="cls-2" d="M2132.07,109.26l7.4,1.3A5.59,5.59,0,0,0,2146,106V106h0a5.59,5.59,0,0,0-4.52-6.49h-.08l-7.4-1.3" transform="translate(-530.33 -0.02)"/><path class="cls-2" d="M2132.07,109.26l-7.4-1.3a5.59,5.59,0,0,0-6.49,4.52v.08h0a5.59,5.59,0,0,0,4.52,6.49h.08l7.4,1.3" transform="translate(-530.33 -0.02)"/><path class="cls-2" d="M2130.17,120.26l7.4,1.3a5.59,5.59,0,0,0,6.49-4.52V117h0a5.59,5.59,0,0,0-4.52-6.49h-.08l-7.4-1.3" transform="translate(-530.33 -0.02)"/><path class="cls-2" d="M2134,98.16l-7.4-1.3a5.59,5.59,0,0,0-6.49,4.52v.08h0a5.59,5.59,0,0,0,4.52,6.49h.08l7.4,1.3" transform="translate(-530.33 -0.02)"/><path class="cls-2" d="M2132.07,109.26l7.4,1.3A5.59,5.59,0,0,0,2146,106V106h0a5.59,5.59,0,0,0-4.52-6.49h-.08l-7.4-1.3" transform="translate(-530.33 -0.02)"/><path class="cls-2" d="M2132.07,109.26l-7.4-1.3a5.59,5.59,0,0,0-6.49,4.52v.08h0a5.59,5.59,0,0,0,4.52,6.49h.08l7.4,1.3" transform="translate(-530.33 -0.02)"/><path class="cls-2" d="M2130.17,120.26l7.4,1.3a5.59,5.59,0,0,0,6.49-4.52V117h0a5.59,5.59,0,0,0-4.52-6.49h-.08l-7.4-1.3" transform="translate(-530.33 -0.02)"/><path class="cls-2" d="M2137.67,76l-7.4-1.3a5.59,5.59,0,0,0-6.49,4.52v.08h0a5.59,5.59,0,0,0,4.52,6.49h.08l7.4,1.3" transform="translate(-530.33 -0.02)"/><path class="cls-2" d="M2135.77,87.06l7.4,1.3a5.59,5.59,0,0,0,6.49-4.52v-.08h0a5.59,5.59,0,0,0-4.52-6.49h-.08l-7.4-1.3" transform="translate(-530.33 -0.02)"/><path class="cls-2" d="M2135.77,87.06l-7.4-1.3a5.59,5.59,0,0,0-6.49,4.52v.08h0a5.59,5.59,0,0,0,4.52,6.49h.08l7.4,1.3" transform="translate(-530.33 -0.02)"/><path class="cls-2" d="M2133.87,98.16l7.4,1.3a5.59,5.59,0,0,0,6.49-4.52v-.08h0a5.59,5.59,0,0,0-4.52-6.49h-.08l-7.4-1.3" transform="translate(-530.33 -0.02)"/><path class="cls-2" d="M2137.67,76l-7.4-1.3a5.59,5.59,0,0,0-6.49,4.52v.08h0a5.59,5.59,0,0,0,4.52,6.49h.08l7.4,1.3" transform="translate(-530.33 -0.02)"/><path class="cls-2" d="M2135.77,87.06l7.4,1.3a5.59,5.59,0,0,0,6.49-4.52v-.08h0a5.59,5.59,0,0,0-4.52-6.49h-.08l-7.4-1.3" transform="translate(-530.33 -0.02)"/><path class="cls-2" d="M2135.77,87.06l-7.4-1.3a5.59,5.59,0,0,0-6.49,4.52v.08h0a5.59,5.59,0,0,0,4.52,6.49h.08l7.4,1.3" transform="translate(-530.33 -0.02)"/><path class="cls-2" d="M2133.87,98.16l7.4,1.3a5.59,5.59,0,0,0,6.49-4.52v-.08h0a5.59,5.59,0,0,0-4.52-6.49h-.08l-7.4-1.3" transform="translate(-530.33 -0.02)"/><path class="cls-2" d="M2099.77,79.16" transform="translate(-530.33 -0.02)"/><line class="cls-2" x1="1442.23" y1="219.14" x2="1381.33" y2="219.14"/></g></svg>