<svg xmlns="http://www.w3.org/2000/svg" width="363" height="78" viewBox="0 0 363 78">
    <g fill="#FFF" fill-rule="evenodd">
        <path d="M9.64.637h44.497v51.23c0 13.669-10.332 25.616-27.015 25.616-17.114 0-26.046-10.979-27.122-25.94h13.13c.753 7.535 4.628 13.885 13.778 13.885 8.179 0 13.237-5.165 13.237-13.56V12.69H9.64V.637zM59.662 49.177c0-14.637 10.979-28.2 29.49-28.2 18.512 0 29.49 13.563 29.49 28.2 0 14.53-10.978 28.09-29.49 28.09-18.511 0-29.49-13.56-29.49-28.09m13.24 0c0 8.718 5.81 16.79 16.25 16.79 10.44 0 16.253-8.072 16.253-16.79s-5.813-16.898-16.253-16.898c-10.44 0-16.25 8.18-16.25 16.898M124.704 49.177c0-14.637 10.979-28.2 29.49-28.2 18.512 0 29.49 13.563 29.49 28.2 0 14.53-10.978 28.09-29.49 28.09-18.511 0-29.49-13.56-29.49-28.09m13.24 0c0 8.718 5.81 16.79 16.25 16.79 10.44 0 16.252-8.072 16.252-16.79s-5.812-16.898-16.251-16.898c-10.44 0-16.252 8.18-16.252 16.898M198.052 59.939c.754 4.952 3.983 7.857 9.901 7.857 5.167 0 8.828-2.583 8.828-6.889 0-3.443-1.831-5.273-5.812-6.348l-7.964-2.153c-9.257-2.368-14.424-6.89-14.424-15.5 0-9.793 8.396-15.929 19.05-15.929 11.517 0 17.973 6.674 19.05 16.037h-11.515c-.216-3.337-2.477-6.565-7.213-6.565-4.197 0-6.994 2.26-6.994 5.813 0 3.336 1.938 4.628 5.811 5.704l9.58 2.69c8.61 2.368 12.809 7.318 12.809 15.068 0 10.655-10.118 17.543-21.096 17.543-11.194 0-20.127-5.165-21.526-17.328h11.515zM236.151 6.232h13.561V22.27h13.884v11.193h-13.884v24.432c0 5.597 2.152 8.072 7.426 8.072 2.26 0 4.092-.431 5.919-.968v10.87c-1.722.645-6.026 1.399-9.47 1.399-12.7 0-17.436-7.64-17.436-20.019V6.232zM280.869 53.697c.86 8.072 6.026 13.561 15.607 13.561 6.564 0 11.622-2.906 14.205-6.996h12.593c-3.658 9.579-13.99 17.005-26.798 17.005-18.297 0-28.954-12.162-28.954-28.198 0-16.252 11.732-28.09 28.307-28.09 16.898 0 28.198 11.731 28.198 28.306v4.412H280.87zm-.108-8.933h30.351c-.86-8.287-6.35-14.1-15.068-14.1-8.396 0-14.207 5.38-15.283 14.1zM362.951 35.293h-2.905c-10.87 0-15.929 6.35-15.929 16.79v23.891h-13.563V22.27h13.132v11.624c2.582-8.501 9.793-12.054 19.265-12.054v13.454z"/>
    </g>
</svg>
